# xmcd
#
# Track frame offsets:
#  150
#  13203
#  32835
#  48430
#  64336
#  77477
#  92420
#  111712
#  124016
#  144216
#  158722
#  170884
#  184067
#  208768
#
# Disc length: 3020 seconds
#
# Revision: 0
# Processed by: cddbd v1.5.1PL2 Copyright (c) Steve Scherf et al.
# Submitted via: Collectorz.com_Music_Collector 6.11
#
DISCID=c30bca0e
DTITLE=Various Artist - North By North West [CD2)
DYEAR=2006
DGENRE=Alternative Pop/ Rock - General Rock - New Wave - Post-Punk
TTITLE0=Spitfire Boys - British Refugee
TTITLE1=Yachts - Suffice To Say
TTITLE2=Will Sergeant - Fuzztronic
TTITLE3=Orchestral Manoeuvres In The Dark - Electricity
TTITLE4=Echo and The Bunnymen - Pictures On My Wall
TTITLE5=Wah! Heat - Better Scream
TTITLE6=Lori and The Chameleons - Touch
TTITLE7=The Teardrop Explodes - Reward
TTITLE8=Echo and The Bunnymen - Rescue
TTITLE9=Care - Flaming Sword
TTITLE10=Pale Fountains - There's Always Something On My Mind
TTITLE11=Dalek I Love You - Holiday In Disneyland
TTITLE12=Lotus Eaters - First Picture Of You
TTITLE13=Frankie Goes To Hollywood - Relax
EXTD=
EXTT0=
EXTT1=
EXTT2=
EXTT3=
EXTT4=
EXTT5=
EXTT6=
EXTT7=
EXTT8=
EXTT9=
EXTT10=
EXTT11=
EXTT12=
EXTT13=
PLAYORDER=
